<svg id="svg1" width="43.994mm" height="49.8mm" version="1.1" viewBox="0 0 43.994 49.8" xml:space="preserve" xmlns="http://www.w3.org/2000/svg" xmlns:xlink="http://www.w3.org/1999/xlink"><defs id="defs1"><clipPath id="clipPath50"><path id="path51" d="m26.315 28.908v-10.632l4.3109-3.82e-4v10.632z" fill="none"/></clipPath><clipPath id="clipPath51"><path id="path52" d="m17.428 28.908v-10.625h4.8903v10.604z" fill="none"/></clipPath><clipPath id="clipPath52"><path id="path53" d="m32.393 18.629h2.099v10.625h-2.099z" fill="none"/></clipPath><clipPath id="clipPath53"><path id="path54" d="m26.315 28.908v-10.632l4.3109-3.82e-4v10.632z" fill="none"/></clipPath><clipPath id="clipPath54"><path id="path55" d="m17.428 28.908v-10.625h4.8903v10.604z" fill="none"/></clipPath><clipPath id="clipPath70"><use id="use70" fill="#000000" xlink:href="#path1"/></clipPath><clipPath id="clipPath71"><use id="use71" fill="#000000" xlink:href="#path1"/></clipPath><clipPath id="clipPath72"><use id="use72" fill="#000000" xlink:href="#path1"/></clipPath></defs><g id="layer2" transform="translate(-7.4191e-7 -.5)"><g id="layer3"><path id="path1" transform="matrix(.61388 0 0 .61388 -33.041 -8.841)" d="m88.246 96.34-33.011-19.059-1.4107-2.4435-1e-6 -38.118 1.4107-2.4435 33.011-19.059h2.8215l33.011 19.059 1.4108 2.4435v38.118l-1.4108 2.4435-33.011 19.059z" stroke-miterlimit="3.9" stroke-width="2.5005"/><path id="path12" transform="matrix(.61388 0 0 .61388 -33.041 -8.841)" d="m88.246 96.34-33.011-19.059-1.4107-2.4435-1e-6 -38.118 1.4107-2.4435 33.011-19.059h2.8215l33.011 19.059 1.4108 2.4435v38.118l-1.4108 2.4435-33.011 19.059z" fill="#d94b26" stroke-miterlimit="3.9" stroke-width="2.5005"/><path id="path13" transform="matrix(.61388 0 0 .61388 -33.041 -8.841)" d="m88.246 96.34-33.011-19.059-1.4107-2.4435-1e-6 -38.118 1.4107-2.4435 33.011-19.059h2.8215l33.011 19.059 1.4108 2.4435v38.118l-1.4108 2.4435-33.011 19.059z" display="none" fill="#9522c4" stroke-miterlimit="3.9" stroke-width="2.5005"/><path id="path2" d="m21.997 50.8v-8.338" clip-path="url(#clipPath72)" fill="none" stop-color="#000000" stroke="#eee" stroke-linecap="round" stroke-width=".875" style="font-variation-settings:normal"/><path id="path33" d="m43.994 12.7-7.2209 4.169" clip-path="url(#clipPath70)" fill="none" stop-color="#000000" stroke="#eee" stroke-linecap="round" stroke-width=".875" style="font-variation-settings:normal"/><path id="path32" d="m7.1512e-7 12.7 7.2209 4.169" clip-path="url(#clipPath71)" fill="none" stop-color="#000000" stroke="#eee" stroke-linecap="round" stroke-width=".875" style="font-variation-settings:normal"/></g><g id="layer5" transform="scale(.90424 1.1059)" display="none" fill="#eee" font-family="'URW Gothic'" font-size="14.377px" letter-spacing="0px" stroke-width=".26458" word-spacing="0px" style="line-height:1.25"><text id="text4" x="7.1341739" y="29.253868" font-size="14.377px" font-style="italic" stroke-width=".25482" xml:space="preserve">A</text><text id="text23" transform="translate(.13492 .34627)" x="14.022795" y="28.907814" clip-path="url(#clipPath54)" font-size="14.377px" stroke-width=".26458" xml:space="preserve">R</text><text id="text24" x="22.889931" y="29.253979" xml:space="preserve">i</text><text id="text25" transform="translate(.13503 .34617)" x="23.724546" y="28.907814" clip-path="url(#clipPath53)" xml:space="preserve">E<tspan id="tspan24" x="23.724546" y="28.907814" stroke-width=".26458"/></text><text id="text26" x="31.30031" y="29.253979" clip-path="url(#clipPath52)" xml:space="preserve">L</text><text id="text43" transform="matrix(.0097021 0 0 .0096872 -121.95 -57.403)" x="16166.742" y="8944.0127" display="inline" fill-rule="evenodd" font-family="Dhurjati" font-size="592.74px" letter-spacing="0px" stroke-linejoin="round" stroke-width="770.23" word-spacing="0px" style="font-variant-caps:normal;font-variant-east-asian:normal;font-variant-ligatures:normal;font-variant-numeric:normal;line-height:1.25" xml:space="preserve">OS</text></g><g id="g42" transform="matrix(.94883 0 0 1.1059 -.32515 0)" display="none" fill="#eee" font-family="'URW Gothic'" font-size="14.377px" letter-spacing="0px" word-spacing="0px" style="line-height:1.25"><text id="text38" x="7.1341739" y="29.253868" font-size="14.377px" font-style="italic" stroke-width=".24876" xml:space="preserve">A</text><text id="text39" transform="translate(.13492 .34627)" x="14.022795" y="28.907814" clip-path="url(#clipPath51)" font-size="14.377px" stroke-width=".25829" xml:space="preserve">R</text><text id="text40" x="22.889931" y="29.253979" stroke-width=".25829" xml:space="preserve">i</text><text id="text41" transform="translate(.13503 .34617)" x="23.724546" y="28.907814" clip-path="url(#clipPath50)" stroke-width=".25829" xml:space="preserve">E<tspan id="tspan40" x="23.724546" y="28.907814" stroke-width=".25829"/></text><text id="text42" x="31.30031" y="29.253979" stroke-width=".25829" xml:space="preserve">L</text></g><g id="g6" transform="matrix(.94883 0 0 1.1059 -.32515 0)" fill="#eee" stroke-width=".25829"><path id="text1" d="m7.2923 29.254h1.1214l2.2141-3.5799h4.9457l0.877 3.5799h1.1645l-2.6023-10.625h-1.1933zm3.9249-4.5432 2.9761-4.8738 1.1502 4.8738z" stroke-width=".24876" aria-label="A"/><path id="text2" transform="translate(.13492 .34627)" d="m19.184 24.94c2.0416-0.21566 3.1343-1.3371 3.1343-3.2493 0-1.3227-0.56072-2.3291-1.5959-2.8899-0.66136-0.35944-1.5671-0.51759-2.9761-0.51759h-2.6311v10.625h1.0639v-9.6616h1.4952c1.1214 0 1.8691 0.11502 2.4442 0.38819 0.71887 0.34506 1.1214 1.0639 1.1214 2.0272 0 1.2077-0.54634 1.9697-1.6103 2.2429-0.50321 0.1294-1.1933 0.18691-2.3723 0.18691l3.58 4.8164h1.3227z" clip-path="url(#clipPath51)" aria-label="R"/><path id="text3" d="m23.796 29.254h1.0639v-7.8644h-1.0639zm0-8.8133h1.0639v-1.8116h-1.0639z" aria-label="i"/><path id="text5" transform="translate(.13503 .34617)" d="m24.817 28.908h5.8085v-0.96329h-4.7445v-3.925h4.5864v-0.96329h-4.5864v-3.81h4.7445v-0.96329h-5.8085z" clip-path="url(#clipPath50)" aria-label="E"/><path id="text6" d="m32.393 29.254h5.4634v-0.96329h-4.3995v-9.6616h-1.0639z" aria-label="L"/></g><g id="g12" transform="scale(.90424 1.1059)" display="none" fill="#eee" stroke-width=".26458"><path id="text7" d="m7.2923 29.254h1.1214l2.2141-3.5799h4.9457l0.877 3.5799h1.1645l-2.6023-10.625h-1.1933zm3.9249-4.5432 2.9761-4.8738 1.1502 4.8738z" stroke-width=".25482" aria-label="A"/><path id="text8" transform="translate(.13492 .34627)" d="m19.184 24.94c2.0416-0.21566 3.1343-1.3371 3.1343-3.2493 0-1.3227-0.56072-2.3291-1.5959-2.8899-0.66136-0.35944-1.5671-0.51759-2.9761-0.51759h-2.6311v10.625h1.0639v-9.6616h1.4952c1.1214 0 1.8691 0.11502 2.4442 0.38819 0.71887 0.34506 1.1214 1.0639 1.1214 2.0272 0 1.2077-0.54634 1.9697-1.6103 2.2429-0.50321 0.1294-1.1933 0.18691-2.3723 0.18691l3.58 4.8164h1.3227z" clip-path="url(#clipPath54)" aria-label="R"/><path id="text9" d="m23.796 29.254h1.0639v-7.8644h-1.0639zm0-8.8133h1.0639v-1.8116h-1.0639z" aria-label="i"/><path id="text10" transform="translate(.13503 .34617)" d="m24.817 28.908h5.8085v-0.96329h-4.7445v-3.925h4.5864v-0.96329h-4.5864v-3.81h4.7445v-0.96329h-5.8085z" clip-path="url(#clipPath53)" aria-label="E"/><path id="text11" d="m32.393 29.254h5.4634v-0.96329h-4.3995v-9.6616h-1.0639z" clip-path="url(#clipPath52)" aria-label="L"/><path id="text12" transform="matrix(.0097021 0 0 .0096872 -121.95 -57.403)" d="m16312 8905.9q27.252 0 27.252-19.076v-171.01q0-19.077-27.252-19.077h-29.977q-27.934 0-27.934 19.077v171.01q0 19.076 27.934 19.076zm-123.32-196.22q0-23.164 23.164-36.79 23.846-14.307 57.23-14.307h55.867q52.46 0 73.581 29.296 6.813 9.5382 6.813 21.802v183.27q0 23.164-23.846 37.472-23.164 13.626-56.548 13.626h-55.867q-52.461 0-73.581-29.296-6.813-9.5383-6.813-21.802zm417.64 115.14q0-19.076-27.934-19.076h-40.197q-53.141 0-73.58-28.615-6.814-9.5383-6.814-21.802v-45.647q0-23.164 23.165-36.79 23.845-14.307 57.229-14.307h53.142q33.384 0 56.548 13.626 23.846 13.626 23.846 37.472v27.934h-65.405v-21.802q0-19.077-27.934-19.077h-27.252q-27.933 0-27.933 19.077v32.703q0 20.439 27.933 19.076h40.197q33.384 0 56.548 13.626 23.846 13.626 23.846 37.472v74.262q0 23.846-24.527 37.472-22.483 13.626-55.867 13.626h-53.142q-52.46 0-73.58-29.296-6.814-9.5383-6.814-21.802v-38.153h65.406v32.021q0 19.076 27.933 19.076h27.252q27.934 0 27.934-19.076z" fill-rule="evenodd" stroke-linejoin="round" stroke-width="770.23" aria-label="OS"/></g></g></svg>
